HIERARCHY
ROOT SpineBase
{
  OFFSET 0.000000 0.000000 0.000000
  CHANNELS 6 Xposition Yposition Zposition Zrotation Xrotation Yrotation
  JOINT SpineMid
  {
    OFFSET 0.000000 32.179382 0.000000
    CHANNELS 3 Zrotation Xrotation Yrotation
    JOINT SpineShoulder
    {
      OFFSET 0.095736 23.854929 -0.772079
      CHANNELS 3 Zrotation Xrotation Yrotation
      JOINT Neck
      {
        OFFSET 0.087817 7.881013 -0.584709
        CHANNELS 3 Zrotation Xrotation Yrotation
        JOINT Head
        {
          OFFSET -5.450996 14.134199 -1.626885
          CHANNELS 3 Zrotation Xrotation Yrotation
          End Site
          {
            OFFSET 0 0 0
          }
        }
      }
      JOINT ShoulderLeft
      {
        OFFSET -18.044993 -6.771080 5.546478
        CHANNELS 3 Zrotation Xrotation Yrotation
        JOINT ElbowLeft
        {
          OFFSET -1.249950 -27.060254 2.707292
          CHANNELS 3 Zrotation Xrotation Yrotation
          JOINT WristLeft
          {
            OFFSET 1.071539 -21.751175 -4.107828
            CHANNELS 3 Zrotation Xrotation Yrotation
            JOINT HandLeft
            {
              OFFSET 0.349230 -6.084375 -1.263519
              CHANNELS 3 Zrotation Xrotation Yrotation
              JOINT HandTipLeft
              {
                OFFSET 2.277807 -6.820785 -1.967190
                CHANNELS 3 Zrotation Xrotation Yrotation
                End Site
                {
                  OFFSET 0 0 0
                }
              }
              JOINT ThumbLeft
              {
                OFFSET 3.827222 0.486363 -3.844051
                CHANNELS 3 Zrotation Xrotation Yrotation
                End Site
                {
                  OFFSET 0 0 0
                }
              }
            }
          }
        }
      }
      JOINT ShoulderRight
      {
        OFFSET 15.439105 -3.074339 -7.524006
        CHANNELS 3 Zrotation Xrotation Yrotation
        JOINT ElbowRight
        {
          OFFSET 7.332015 -26.744588 -1.600927
          CHANNELS 3 Zrotation Xrotation Yrotation
          JOINT WristRight
          {
            OFFSET 0.357086 -23.508759 -5.495801
            CHANNELS 3 Zrotation Xrotation Yrotation
            JOINT HandRight
            {
              OFFSET -1.428058 -6.041394 -0.828668
              CHANNELS 3 Zrotation Xrotation Yrotation
              JOINT HandTipRight
              {
                OFFSET -0.354551 -6.926177 -0.845395
                CHANNELS 3 Zrotation Xrotation Yrotation
                End Site
                {
                  OFFSET 0 0 0
                }
              }
              JOINT ThumbRight
              {
                OFFSET -4.113209 -0.505334 -1.989035
                CHANNELS 3 Zrotation Xrotation Yrotation
                End Site
                {
                  OFFSET 0 0 0
                }
              }
            }
          }
        }
      }
    }
  }
  JOINT HipLeft
  {
    OFFSET -6.298795 -0.043066 -1.409325
    CHANNELS 3 Zrotation Xrotation Yrotation
    JOINT KneeLeft
    {
      OFFSET 3.509385 -36.142320 5.948874
      CHANNELS 3 Zrotation Xrotation Yrotation
      JOINT AnkleLeft
      {
        OFFSET 4.107228 -34.925598 8.021047
        CHANNELS 3 Zrotation Xrotation Yrotation
        JOINT FootLeft
        {
          OFFSET -0.285024 -8.335145 -5.758131
          CHANNELS 3 Zrotation Xrotation Yrotation
          End Site
          {
            OFFSET 0 0 0
          }
        }
      }
    }
  }
  JOINT HipRight
  {
    OFFSET 7.836225 1.695008 -5.858593
    CHANNELS 3 Zrotation Xrotation Yrotation
    JOINT KneeRight
    {
      OFFSET 9.961612 -34.030913 1.595300
      CHANNELS 3 Zrotation Xrotation Yrotation
      JOINT AnkleRight
      {
        OFFSET 4.035933 -36.520019 7.690438
        CHANNELS 3 Zrotation Xrotation Yrotation
        JOINT FootRight
        {
          OFFSET -0.907518 -8.251223 -5.740611
          CHANNELS 3 Zrotation Xrotation Yrotation
          End Site
          {
            OFFSET 0 0 0
          }
        }
      }
    }
  }
}
MOTION
Frames: 14
Frame Time: 0.033333
-71.061280 80.307352 330.658696 -0.000000 0.000000 17.472394 -0.000000 0.000000 -17.472394 -0.000000 0.000000 0.000000 -0.000000 0.000000 0.000000 0.000000 0.000000 0.000000 -0.000000 0.000000 0.000000 -0.000000 0.000000 0.000000 -0.000000 0.000000 0.000000 -0.000000 0.000000 0.000000 0.000000 0.000000 0.000000 0.000000 0.000000 0.000000 -0.000000 0.000000 0.000000 -0.000000 0.000000 0.000000 -0.000000 0.000000 0.000000 -0.000000 0.000000 0.000000 0.000000 0.000000 0.000000 0.000000 0.000000 0.000000 -0.000000 0.000000 -17.472394 -0.000000 0.000000 0.000000 -0.000000 0.000000 0.000000 0.000000 0.000000 0.000000 -0.000000 0.000000 -17.472394 -0.000000 0.000000 0.000000 -0.000000 0.000000 0.000000 0.000000 0.000000 0.000000
-71.045676 80.303665 330.526381 0.010640 0.003088 17.526075 -0.011076 0.000260 -17.526076 -0.000000 0.000000 0.000000 -0.000000 0.000000 0.000000 0.000000 0.000000 0.000000 -0.000000 0.000000 0.000000 -0.423394 -0.863383 0.034292 0.272988 1.716070 0.043023 -1.284204 -1.473763 0.098195 0.000000 0.000000 0.000000 0.000000 0.000000 0.000000 -0.000000 0.000000 0.000000 -0.000000 0.000000 0.000000 -0.257386 0.759470 -0.142310 0.259295 -0.758821 0.145733 0.000000 0.000000 0.000000 0.000000 0.000000 0.000000 -0.011076 0.000260 -17.526076 -0.000000 0.000000 0.000000 0.269211 1.911491 -0.252944 0.000000 0.000000 0.000000 -0.011076 0.000260 -17.526076 -0.000000 0.000000 0.000000 -0.514842 1.563779 0.191304 0.000000 0.000000 0.000000
-71.025699 80.299809 330.411021 0.024618 0.004053 17.562333 -0.024694 0.003564 -17.562333 -0.000000 0.000000 0.000000 -0.000000 0.000000 0.000000 0.000000 0.000000 0.000000 -0.000000 0.000000 0.000000 -0.783481 -1.624299 0.057008 0.519786 3.270992 0.081787 -2.440102 -2.757059 0.159219 0.000000 0.000000 0.000000 0.000000 0.000000 0.000000 -0.000000 0.000000 0.000000 -0.522018 0.689705 0.135474 -0.040012 0.969026 -0.441556 1.193272 -0.943421 0.223709 0.000000 0.000000 0.000000 0.000000 0.000000 0.000000 -0.024694 0.003564 -17.562333 -0.000000 0.000000 0.000000 0.440471 3.400879 -0.425033 0.000000 0.000000 0.000000 -0.024694 0.003564 -17.562333 -0.000000 0.000000 0.000000 -0.869959 2.676774 0.325567 0.000000 0.000000 0.000000
-71.001351 80.295783 330.312616 0.041933 0.002900 17.581122 -0.040851 0.009902 -17.581120 -0.000000 0.000000 0.000000 0.076322 -0.885293 -0.331673 0.000000 0.000000 0.000000 -0.000000 0.000000 0.000000 -1.079995 -2.281684 0.070340 0.740926 4.659834 0.115007 -3.465671 -3.843818 0.199926 0.000000 0.000000 0.000000 0.000000 0.000000 0.000000 -0.000000 0.000000 0.000000 -0.824217 1.048957 0.215726 -0.090628 1.653879 -0.705929 1.568658 -1.663177 0.426387 0.000000 0.000000 0.000000 0.000000 0.000000 0.000000 -0.040851 0.009902 -17.581120 -0.000000 0.000000 0.000000 0.512617 4.490570 -0.514018 0.000000 0.000000 0.000000 -0.040851 0.009902 -17.581120 -0.000000 0.000000 0.000000 -1.068023 3.358157 0.396436 0.000000 0.000000 0.000000
-70.972632 80.291587 330.231167 0.062584 -0.000372 17.582418 -0.059548 0.019260 -17.582408 -0.000000 0.000000 0.000000 0.080975 -1.023309 -0.384115 0.000000 0.000000 0.000000 -0.000000 0.000000 0.000000 -1.312689 -2.834771 0.076157 0.936865 5.878337 0.141573 -4.359114 -4.729834 0.235508 0.000000 0.000000 0.000000 0.000000 0.000000 0.000000 -0.000000 0.000000 0.000000 -1.153607 1.417326 0.304660 -0.162318 2.483230 -0.998718 1.797186 -2.559648 0.684495 0.000000 0.000000 0.000000 0.000000 0.000000 0.000000 -0.059548 0.019260 -17.582408 -0.000000 0.000000 0.000000 0.484906 5.197939 -0.518673 0.000000 0.000000 0.000000 -0.059548 0.019260 -17.582408 -0.000000 0.000000 0.000000 -1.110732 3.620290 0.400352 0.000000 0.000000 0.000000
-70.939541 80.287222 330.166672 0.086572 -0.005760 17.566209 -0.080796 0.031619 -17.566183 -0.000000 0.000000 0.000000 0.075721 -1.083048 -0.407720 0.000000 0.000000 0.000000 -0.000000 0.000000 0.000000 -1.481319 -3.282999 0.076001 1.107927 6.922847 0.160607 -5.118914 -5.412287 0.279189 0.000000 0.000000 0.000000 0.000000 0.000000 0.000000 -0.000000 0.000000 0.000000 -1.509953 1.794412 0.402524 -0.256768 3.469736 -1.319625 1.880512 -3.646826 0.991417 0.000000 0.000000 0.000000 0.000000 0.000000 0.000000 -0.080796 0.031619 -17.566183 -0.000000 0.000000 0.000000 0.356841 5.534311 -0.438560 0.000000 0.000000 0.000000 -0.080796 0.031619 -17.566183 -0.000000 0.000000 0.000000 -0.998735 3.467886 0.336163 0.000000 0.000000 0.000000
-70.892581 80.283150 330.106618 0.116901 -0.015187 17.538067 -0.106891 0.049708 -17.538005 -0.000000 0.000000 0.000000 0.034234 -0.994536 -0.378901 0.000000 0.000000 0.000000 -0.000000 0.000000 0.000000 -1.636314 -3.824939 0.066371 1.435959 9.011031 0.188457 -5.333027 -6.847293 0.116079 0.000000 0.000000 0.000000 0.000000 0.000000 0.000000 -0.000000 0.000000 0.000000 -1.695542 1.873354 0.450964 0.409622 4.804291 -1.748551 0.908587 -4.317072 1.359593 0.000000 0.000000 0.000000 0.000000 0.000000 0.000000 -0.106891 0.049708 -17.538005 -0.000000 0.000000 0.000000 0.372241 4.871250 -0.427157 0.000000 0.000000 0.000000 -0.106891 0.049708 -17.538005 -0.000000 0.000000 0.000000 -0.316242 2.403291 -0.037161 0.000000 0.000000 0.000000
-70.917356 80.277088 330.039129 0.052797 0.025980 17.571027 -0.058177 -0.008829 -17.571043 -0.000000 0.000000 0.000000 0.007824 -0.850460 -0.326747 0.000000 0.000000 0.000000 -0.000000 0.000000 0.000000 -1.667259 -4.088165 0.054305 1.740128 9.335000 0.107682 -5.833100 -7.115522 0.112816 0.000000 0.000000 0.000000 0.000000 0.000000 0.000000 -0.000000 0.000000 0.000000 -1.421312 1.037824 0.360229 1.469570 5.649026 -1.910572 0.169335 -6.693537 1.583847 0.000000 0.000000 0.000000 0.000000 0.000000 0.000000 -0.058177 -0.008829 -17.571043 -0.000000 0.000000 0.000000 -0.093068 4.690010 -0.089819 0.000000 0.000000 0.000000 -0.058177 -0.008829 -17.571043 -0.000000 0.000000 0.000000 0.244544 1.464048 -0.331425 0.000000 0.000000 0.000000
-70.876821 80.251524 330.014117 0.094373 0.023128 17.432564 -0.096967 0.006207 -17.432578 -0.000000 0.000000 0.000000 -0.000000 0.000000 0.000000 0.000000 0.000000 0.000000 -0.000000 0.000000 0.000000 -1.649738 -4.175282 0.046012 1.807957 10.212363 0.130962 -7.065510 -7.933694 0.176333 0.000000 0.000000 0.000000 0.000000 0.000000 0.000000 0.668056 -0.563731 -0.191002 -2.096225 1.531941 0.570387 -0.974654 7.603002 -1.867529 1.449595 -7.021172 1.770969 0.000000 0.000000 0.000000 0.000000 0.000000 0.000000 -0.096967 0.006207 -17.432578 -0.000000 0.000000 0.000000 -0.713564 4.492103 0.357490 0.000000 0.000000 0.000000 -0.096967 0.006207 -17.432578 -0.000000 0.000000 0.000000 -0.000000 0.000000 0.000000 0.000000 0.000000 0.000000
-70.750338 80.232805 330.092037 0.252742 -0.060921 17.195650 -0.223435 0.132917 -17.195257 -0.000000 0.000000 0.000000 -0.000000 0.000000 0.000000 0.000000 0.000000 0.000000 -0.000000 0.000000 0.000000 -1.471896 -3.850019 0.039053 1.779426 8.781739 0.050496 -7.027123 -6.145462 0.651696 0.000000 0.000000 0.000000 0.000000 0.000000 0.000000 1.580881 -1.196591 -0.404904 -4.548291 4.928003 1.330904 -2.778594 9.018505 -2.556370 3.219489 -10.191570 2.491616 0.000000 0.000000 0.000000 0.000000 0.000000 0.000000 -0.223435 0.132917 -17.195257 -0.000000 0.000000 0.000000 -1.416755 4.104617 0.867279 0.000000 0.000000 0.000000 -0.223435 0.132917 -17.195257 -0.000000 0.000000 0.000000 0.534306 -1.740825 -0.174065 0.000000 0.000000 0.000000
-70.581019 80.306609 330.209760 0.597008 -0.205835 17.197779 -0.509467 0.373138 -17.195047 -0.000000 0.000000 0.000000 -0.000000 0.000000 0.000000 0.000000 0.000000 0.000000 -0.000000 0.000000 0.000000 -1.347729 -3.764794 0.024877 1.876032 9.193123 0.031776 -8.813755 -6.539284 0.934238 0.000000 0.000000 0.000000 0.000000 0.000000 0.000000 3.877007 -1.962431 -0.698020 -10.121113 11.343411 3.071307 -4.179030 9.210575 -3.970440 5.327461 -13.788331 3.482172 0.000000 0.000000 0.000000 0.000000 0.000000 0.000000 -0.509467 0.373138 -17.195047 -0.000000 0.000000 0.000000 -1.742092 3.697584 1.108008 0.000000 0.000000 0.000000 -0.509467 0.373138 -17.195047 -0.000000 0.000000 0.000000 0.461353 -2.908808 0.010930 0.000000 0.000000 0.000000
-70.325137 80.336568 330.382983 0.832239 -0.390077 16.773612 -0.684297 0.613618 -16.767115 -0.000000 0.000000 0.000000 -0.000000 0.000000 0.000000 0.000000 0.000000 0.000000 -0.000000 0.000000 0.000000 -1.213224 -3.557014 0.016276 1.625102 8.400330 0.059763 -8.706452 -5.503073 1.231535 0.000000 0.000000 0.000000 0.000000 0.000000 0.000000 6.601292 0.268087 -0.332254 -19.392167 17.021151 5.266007 -3.178523 8.709536 -6.297659 5.790070 -15.230157 4.335871 0.000000 0.000000 0.000000 0.000000 0.000000 0.000000 -1.718250 1.180258 -16.917248 1.154016 -0.241091 0.168747 -0.911843 -0.515671 0.645292 0.000000 0.000000 0.000000 -0.684297 0.613618 -16.767115 -0.000000 0.000000 0.000000 0.476484 -2.628274 -0.031976 0.000000 0.000000 0.000000
-70.029555 80.313055 330.595896 0.956970 -0.602320 16.081972 -0.752757 0.843769 -16.071399 -0.000000 0.000000 0.000000 1.373005 0.041452 0.172743 0.000000 0.000000 0.000000 -0.000000 0.000000 0.000000 -1.146157 -3.388086 0.015704 1.804377 8.519499 0.008414 -7.167201 -3.734856 1.670040 0.000000 0.000000 0.000000 0.000000 0.000000 0.000000 9.343728 6.018696 0.583759 -33.047617 22.215199 7.744591 2.020482 6.058926 -9.093671 1.991283 -15.133004 4.047081 0.000000 0.000000 0.000000 0.000000 0.000000 0.000000 -2.152155 1.698900 -16.258798 1.582664 -0.428702 0.224372 -2.123062 4.322271 1.362635 0.000000 0.000000 0.000000 -1.445408 1.814965 -15.881547 0.931962 -0.744455 -0.167727 0.155901 -1.955027 0.110571 0.000000 0.000000 0.000000
-69.707257 80.177201 330.847131 1.078703 -0.816415 15.026253 -0.830310 1.068045 -15.010829 -0.000000 0.000000 0.000000 0.943722 0.550603 0.315611 0.000000 0.000000 0.000000 -0.000000 0.000000 0.000000 -1.095908 -3.269045 0.014699 2.130174 8.755844 -0.081911 -5.442052 -3.535421 1.432083 0.000000 0.000000 0.000000 0.000000 0.000000 0.000000 12.149549 14.606926 1.671586 -51.650751 28.666298 10.882804 8.330734 3.939077 -11.752849 -4.506381 -21.242702 0.271405 0.000000 0.000000 0.000000 0.000000 0.000000 0.000000 -2.607231 2.103420 -15.236333 1.986190 -0.531139 0.283890 -2.381614 7.726158 1.471964 0.000000 0.000000 0.000000 -1.667250 2.609357 -14.666948 1.200026 -1.278875 -0.303630 0.534106 -5.124255 0.223344 0.000000 0.000000 0.000000
